<svg width="48" height="42" viewBox="0 0 48 42" fill="none" xmlns="http://www.w3.org/2000/svg">
<path fill-rule="evenodd" clip-rule="evenodd" d="M44.2916 35.0134C44.2916 35.0134 8.69191 35.0007 8.68496 35.0008C7.98436 34.9927 7.60599 35.0395 6.6735 35.4054L0.909497 37.6655C0.523169 37.8157 0.283326 38.1374 0.283692 38.505C0.284058 38.8687 0.530119 39.1989 0.906753 39.3446C2.79715 40.0881 6.67322 41.6079 6.67322 41.6079C7.54591 41.9503 7.92419 41.9887 8.54424 41.9887L22.4981 42C22.8768 42 23.1839 41.7302 23.1839 41.3974C23.1839 41.0647 22.8768 40.7949 22.4981 40.7949C22.4981 40.7949 9.44783 40.7952 9.39132 40.7956V39.1092H39.6926V40.7949H25.9034C25.5245 40.7949 25.2176 41.0647 25.2176 41.3974C25.2176 41.7302 25.5245 42 25.9034 42H44.2917C45.8386 42 47.0971 40.8961 47.0971 39.5393V37.4741C47.097 36.1173 45.8385 35.0134 44.2916 35.0134ZM4.26309 37.6702V39.3424L3.60275 39.0833C3.1126 38.8911 2.62248 38.6988 2.13166 38.506L4.26309 37.6702ZM5.63467 37.1324V39.8806C6.13529 40.0769 7.81565 40.7243 8.01975 40.7655V36.248C7.81565 36.2893 5.63467 37.1324 5.63467 37.1324ZM9.39141 37.9042V36.2178C9.44792 36.2182 9.50608 36.2185 9.5678 36.2185H39.6927V37.9042H9.39141ZM44.2916 40.7949C45.0823 40.7949 45.7255 40.2317 45.7255 39.5393V37.474C45.7255 36.7817 45.0822 36.2185 44.2916 36.2185H41.0642V40.7949H44.2916Z" fill="black"/>
<path fill-rule="evenodd" clip-rule="evenodd" d="M1.49694 32L23.0525 31.9977C23.4424 31.9977 23.7585 31.7241 23.7584 31.3867C23.7583 31.0493 23.4422 30.7758 23.0523 30.7759L1.69565 30.7781V5.84759H4.51817V26.2707C4.51817 26.8252 5.03984 27.2762 5.68115 27.2762H34.9556C35.4394 27.2762 35.86 27.0502 36.0272 26.7004C36.194 26.3515 36.0835 25.9619 35.7317 25.6581L12.7898 5.84759H38.7562V25.2193C38.7562 25.7901 39.2933 26.2544 39.9535 26.2544H43.0654C44.51 26.2544 45.6853 27.2686 45.6853 28.5151C45.6853 29.7617 44.51 30.7758 43.0654 30.7758H26.2936C25.9037 30.7758 25.5877 31.0493 25.5877 31.3867C25.5877 31.7241 25.9037 31.9976 26.2936 31.9976H43.0653C45.2884 31.9976 47.0971 30.4354 47.0971 28.5151V5.61079C47.0971 3.68923 45.2884 2.12599 43.0653 2.12599H39.9534C39.2932 2.12599 38.7561 2.58932 38.7561 3.15886V4.62582H11.3748L6.38855 0.320096C6.03575 0.0154475 5.58363 -0.0787979 5.17897 0.0678242C4.7742 0.214609 4.51478 0.579047 4.51817 0.992032V4.62574H1.49685C0.827956 4.62574 0.283691 5.09729 0.283691 5.67693V30.9489C0.283691 31.5284 0.827956 32 1.49694 32ZM40.1682 3.34776H43.0653C44.5099 3.34776 45.6852 4.36287 45.6852 5.61071V25.87C44.98 25.3481 44.0645 25.0325 43.0653 25.0325H40.1682V3.34776ZM34.1912 26.0545L5.93013 1.65045V26.0545H8.95879V25.1965C8.95879 24.8591 9.27488 24.5856 9.66477 24.5856C10.0547 24.5856 10.3708 24.8591 10.3708 25.1965V26.0545H13.4019V24.3891C13.4019 24.0517 13.718 23.7782 14.1078 23.7782C14.4977 23.7782 14.8138 24.0517 14.8138 24.3891V26.0545H17.8424V25.1965C17.8424 24.8591 18.1585 24.5856 18.5484 24.5856C18.9383 24.5856 19.2544 24.8591 19.2544 25.1965V26.0545H22.2856V24.3891C22.2856 24.0517 22.6017 23.7782 22.9916 23.7782C23.3815 23.7782 23.6976 24.0517 23.6976 24.3891V26.0545H26.7262V25.1965C26.7262 24.8591 27.0422 24.5856 27.4322 24.5856C27.8221 24.5856 28.1381 24.8591 28.1381 25.1965V26.0545H34.1912Z" fill="black"/>
<path fill-rule="evenodd" clip-rule="evenodd" d="M19.3378 22H12.2598C11.7556 22 11.4298 21.7074 11.4297 21.2544V14.9056C11.4297 14.666 11.4297 14.2202 11.8897 14.0496C12.3423 13.8818 12.6684 14.1763 12.9063 14.3914L19.9132 20.6744C20.1516 20.8881 20.4781 21.1808 20.2911 21.587C20.101 22 19.6045 22 19.3378 22ZM18.3022 20.8518L12.7075 15.8349V20.8518H18.3022Z" fill="black"/>
</svg>
